<svg width="20" height="20" viewBox="0 0 20 20" fill="none" xmlns="http://www.w3.org/2000/svg">
<g clip-path="url(#clip0_50_3308)">
<path fill-rule="evenodd" clip-rule="evenodd" d="M10 20C15.5228 20 20 15.5228 20 10C20 4.47715 15.5228 0 10 0C4.47715 0 0 4.47715 0 10C0 15.5228 4.47715 20 10 20ZM10.2278 4.21326L14.6445 6.09766C14.86 6.18962 15 6.40226 15 6.63772V9.44927C15 12.3635 12.932 15.0916 10.1322 15.8165C10.0456 15.8389 9.9544 15.8389 9.86778 15.8165C7.06798 15.0916 5 12.3635 5 9.44927V6.63772C5 6.40226 5.13998 6.18962 5.35551 6.09766L9.77218 4.21326C9.91778 4.15114 10.0822 4.15114 10.2278 4.21326ZM11.6667 10C11.6667 10.9205 10.9205 11.6667 10 11.6667C9.07952 11.6667 8.33333 10.9205 8.33333 10C8.33333 9.07952 9.07952 8.33333 10 8.33333C10.9205 8.33333 11.6667 9.07952 11.6667 10Z" fill="#0097E6"/>
</g>
<defs>
<clipPath id="clip0_50_3308">
<rect width="20" height="20" fill="white"/>
</clipPath>
</defs>
</svg>
