<svg width="14" height="14" viewBox="0 0 14 14" fill="none" xmlns="http://www.w3.org/2000/svg">
<path fill-rule="evenodd" clip-rule="evenodd" d="M4.5312 12.8346C5.30195 13.1671 6.12531 13.3333 7.00126 13.3333C7.87722 13.3333 8.7004 13.167 9.47081 12.8344C10.2412 12.5018 10.9114 12.0505 11.4813 11.4803C12.0512 10.9102 12.5024 10.2397 12.8348 9.46893C13.1672 8.69818 13.3335 7.87482 13.3335 6.99887C13.3335 6.12291 13.1672 5.29973 12.8346 4.52932C12.502 3.75889 12.0506 3.08873 11.4805 2.51883C10.9103 1.94895 10.2399 1.49778 9.4691 1.16533C8.69834 0.83289 7.87499 0.666667 6.99903 0.666667C6.12307 0.666667 5.29989 0.832962 4.52948 1.16555C3.75906 1.49814 3.0889 1.94951 2.519 2.51967C1.94911 3.08981 1.49794 3.76027 1.1655 4.53103C0.833052 5.30179 0.666829 6.12514 0.666829 7.0011C0.666829 7.87706 0.833124 8.70024 1.16571 9.47065C1.4983 10.2411 1.94967 10.9112 2.51983 11.4811C3.08997 12.051 3.76043 12.5022 4.5312 12.8346ZM6.05517 8.43075L4.50643 6.88203C4.41413 6.78972 4.29811 6.7425 4.15837 6.74037C4.01862 6.73822 3.90046 6.78544 3.80388 6.88203C3.70731 6.97861 3.65902 7.0957 3.65902 7.2333C3.65902 7.3709 3.70731 7.48799 3.80388 7.58457L5.63337 9.41405C5.75388 9.53456 5.89448 9.59482 6.05517 9.59482C6.21584 9.59482 6.35644 9.53456 6.47695 9.41405L10.1859 5.70508C10.2782 5.61278 10.3255 5.49676 10.3276 5.35702C10.3297 5.21727 10.2825 5.09911 10.1859 5.00253C10.0893 4.90596 9.97225 4.85767 9.83465 4.85767C9.69705 4.85767 9.57996 4.90596 9.48339 5.00253L6.05517 8.43075Z" fill="#1FAD66"/>
</svg>
